<?xml version="1.0" standalone="no"?>
<!DOCTYPE svg PUBLIC "-//W3C//DTD SVG 20010904//EN"
 "http://www.w3.org/TR/2001/REC-SVG-20010904/DTD/svg10.dtd">
<svg version="1.0" xmlns="http://www.w3.org/2000/svg"
 width="512.000000pt" height="512.000000pt" viewBox="0 0 512.000000 512.000000"
 preserveAspectRatio="xMidYMid meet">
<metadata>
Created by potrace 1.14, written by Peter Selinger 2001-2017
</metadata>
<g transform="translate(0.000000,512.000000) scale(0.100000,-0.100000)"
fill="#000000" stroke="none">
<path d="M2487 5064 c-112 -17 -192 -39 -291 -81 -91 -38 -226 -124 -291 -184
l-46 -42 -77 26 c-147 50 -217 62 -367 61 -153 -1 -238 -16 -375 -65 -252 -92
-475 -290 -598 -534 -35 -69 -70 -154 -76 -187 -2 -13 -9 -41 -14 -63 -39
-144 -32 -378 14 -535 19 -66 63 -178 80 -204 11 -16 8 -23 -21 -55 -92 -100
-141 -170 -196 -283 -78 -163 -109 -307 -104 -493 2 -71 6 -146 10 -165 27
-150 115 -353 200 -465 44 -59 193 -215 205 -215 3 0 29 -18 58 -40 67 -50
216 -122 307 -148 68 -20 91 -25 165 -38 53 -9 208 -12 272 -4 l58 6 15 -54
c75 -258 291 -498 542 -602 141 -59 213 -73 378 -73 123 -1 165 3 233 21 163
42 321 128 430 233 l43 41 57 -30 c72 -39 221 -89 293 -99 67 -10 249 -10 309
0 273 44 519 211 662 448 63 105 107 217 125 319 4 23 38 59 56 60 16 0 153
109 215 171 162 162 275 386 310 619 4 25 7 106 6 180 -1 156 -23 261 -83 401
l-37 86 24 69 c33 94 60 206 68 284 8 71 9 290 1 330 -3 14 -10 54 -17 88 -45
250 -199 529 -387 703 -182 168 -409 287 -638 334 -210 43 -412 36 -625 -20
l-65 -17 -55 37 c-222 150 -510 217 -773 179z"/>
<path d="M818 1301 c-98 -32 -151 -70 -214 -155 -98 -131 -109 -319 -26 -455
37 -62 109 -126 179 -161 63 -32 74 -34 168 -35 113 0 167 13 235 59 68 45
120 104 152 172 106 225 4 479 -226 566 -73 28 -196 32 -268 9z"/>
<path d="M267 629 c-90 -21 -168 -85 -209 -169 -32 -64 -32 -197 -1 -256 105
-197 346 -239 498 -87 147 146 106 397 -79 488 -59 29 -148 39 -209 24z"/>
</g>
</svg>
